<svg xmlns="http://www.w3.org/2000/svg" xmlns:xlink="http://www.w3.org/1999/xlink" width="250" zoomAndPan="magnify" viewBox="0 0 187.5 187.499992" height="250" preserveAspectRatio="xMidYMid meet" version="1.0"><defs><clipPath id="a29dffa670"><path d="M 4 4.207031 L 187 4.207031 L 187 181 L 4 181 Z M 4 4.207031 " clip-rule="nonzero"/></clipPath></defs><g clip-path="url(#a29dffa670)"><path fill="#a6a6a6" d="M 154.582031 154.941406 C 160.273438 161.507812 159.550781 171.433594 152.960938 177.109375 C 146.371094 182.785156 136.414062 182.0625 130.714844 175.496094 C 127.082031 171.304688 99.503906 134.75 81.59375 107.457031 C 73.808594 95.585938 60.503906 89.195312 46.28125 88.710938 C 36.289062 88.375 25.746094 83.660156 17.628906 72.464844 C 2.332031 51.363281 -0.046875 25.621094 12.328125 14.957031 C 24.707031 4.296875 49.925781 10.363281 68.65625 28.511719 C 78.597656 38.140625 81.753906 49.222656 80.644531 59.121094 C 79.066406 73.210938 83.484375 87.257812 94.140625 96.652344 C 118.648438 118.261719 150.949219 150.75 154.582031 154.941406 Z M 184.761719 38.851562 C 182.671875 36.902344 179.390625 37.011719 177.433594 39.09375 L 150.191406 68.128906 C 147.851562 70.621094 143.921875 70.753906 141.421875 68.417969 C 138.917969 66.085938 138.785156 62.171875 141.125 59.679688 L 167.582031 31.484375 C 169.972656 28.9375 169.839844 24.941406 167.28125 22.558594 C 164.726562 20.179688 160.71875 20.3125 158.328125 22.859375 L 131.871094 51.054688 C 129.53125 53.550781 125.601562 53.679688 123.101562 51.347656 C 120.597656 49.015625 120.464844 45.101562 122.804688 42.609375 L 150.046875 13.578125 C 152.003906 11.492188 151.894531 8.222656 149.800781 6.273438 C 147.785156 4.390625 144.636719 4.417969 142.652344 6.335938 L 108.597656 39.207031 C 101.191406 46.355469 97.546875 56.53125 98.738281 66.738281 L 98.757812 66.914062 C 99.332031 71.808594 98.746094 76.667969 97.222656 81.203125 C 98.636719 83.5 100.328125 85.597656 102.363281 87.390625 C 105.589844 90.238281 108.964844 93.28125 112.390625 96.425781 C 117.09375 94.347656 122.28125 93.339844 127.578125 93.617188 C 137.914062 94.15625 147.90625 89.851562 154.59375 81.976562 L 185.179688 45.964844 C 186.964844 43.859375 186.78125 40.730469 184.761719 38.851562 Z M 69.375 111.796875 C 48.445312 130.386719 24.328125 151.894531 21.898438 154.484375 C 15.949219 160.824219 16.285156 170.769531 22.648438 176.695312 C 29.007812 182.625 38.988281 182.292969 44.9375 175.953125 C 47.234375 173.507812 65.109375 150.703125 81.589844 129.574219 C 77.9375 124.304688 74.410156 119.105469 71.207031 114.222656 C 70.648438 113.371094 70.019531 112.574219 69.375 111.796875 Z M 69.375 111.796875 " fill-opacity="1" fill-rule="nonzero"/></g></svg>