<svg xmlns="http://www.w3.org/2000/svg" xmlns:xlink="http://www.w3.org/1999/xlink" width="250" zoomAndPan="magnify" viewBox="0 0 187.5 187.499992" height="250" preserveAspectRatio="xMidYMid meet" version="1.0"><defs><clipPath id="08c1ee6409"><path d="M 9.351562 0 L 177 0 L 177 187 L 9.351562 187 Z M 9.351562 0 " clip-rule="nonzero"/></clipPath></defs><g clip-path="url(#08c1ee6409)"><path fill="#a6a6a6" d="M 121.789062 77.199219 C 91.382812 77.199219 66.648438 101.941406 66.648438 132.339844 C 66.648438 162.738281 91.382812 187.480469 121.789062 187.480469 C 152.199219 187.480469 176.933594 162.738281 176.933594 132.339844 C 176.933594 101.941406 152.199219 77.199219 121.789062 77.199219 Z M 140.539062 139.53125 L 121.789062 139.53125 C 117.820312 139.53125 114.597656 136.308594 114.597656 132.339844 L 114.597656 112.824219 C 114.597656 108.855469 117.820312 105.632812 121.789062 105.632812 C 125.761719 105.632812 128.984375 108.855469 128.984375 112.824219 L 128.984375 125.148438 L 140.539062 125.148438 C 144.507812 125.148438 147.730469 128.371094 147.730469 132.339844 C 147.730469 136.308594 144.507812 139.53125 140.539062 139.53125 Z M 131.378906 0.480469 L 35.480469 0.480469 C 20.90625 0.480469 9.109375 12.273438 9.109375 26.851562 L 9.109375 151.519531 C 9.109375 166.09375 20.90625 177.890625 35.480469 177.890625 L 69.429688 177.890625 C 58.691406 165.710938 52.265625 149.792969 52.265625 132.339844 C 52.265625 93.980469 83.429688 62.8125 121.789062 62.8125 C 135.023438 62.8125 147.300781 66.457031 157.753906 72.976562 L 157.753906 26.851562 C 157.753906 12.273438 145.957031 0.480469 131.378906 0.480469 Z M 54.660156 101.171875 L 45.070312 101.171875 C 41.140625 101.171875 37.878906 97.910156 37.878906 93.980469 C 37.878906 90.046875 41.140625 86.789062 45.070312 86.789062 L 54.660156 86.789062 C 58.59375 86.789062 61.855469 90.046875 61.855469 93.980469 C 61.855469 97.910156 58.59375 101.171875 54.660156 101.171875 Z M 83.429688 72.402344 L 45.070312 72.402344 C 41.140625 72.402344 37.878906 69.140625 37.878906 65.210938 C 37.878906 61.277344 41.140625 58.019531 45.070312 58.019531 L 83.429688 58.019531 C 87.363281 58.019531 90.625 61.277344 90.625 65.210938 C 90.625 69.140625 87.363281 72.402344 83.429688 72.402344 Z M 121.789062 43.632812 L 45.070312 43.632812 C 41.140625 43.632812 37.878906 40.375 37.878906 36.441406 C 37.878906 32.507812 41.140625 29.25 45.070312 29.25 L 121.789062 29.25 C 125.722656 29.25 128.984375 32.507812 128.984375 36.441406 C 128.984375 40.375 125.722656 43.632812 121.789062 43.632812 Z M 121.789062 43.632812 " fill-opacity="1" fill-rule="nonzero"/></g></svg>