<svg xmlns="http://www.w3.org/2000/svg" xmlns:xlink="http://www.w3.org/1999/xlink" width="250" zoomAndPan="magnify" viewBox="0 0 187.5 187.499992" height="250" preserveAspectRatio="xMidYMid meet" version="1.0"><defs><clipPath id="505154eb71"><path d="M 8.296875 97 L 178.84375 97 L 178.84375 187 L 8.296875 187 Z M 8.296875 97 " clip-rule="nonzero"/></clipPath></defs><path fill="#a6a6a6" d="M 93.5 97 C 118.535156 97 138.894531 70.429688 138.894531 45.398438 C 138.894531 20.367188 118.535156 0 93.5 0 C 68.46875 0 48.101562 20.367188 48.101562 45.398438 C 48.105469 70.429688 68.46875 97 93.5 97 Z M 93.5 97 " fill-opacity="1" fill-rule="nonzero"/><g clip-path="url(#505154eb71)"><path fill="#a6a6a6" d="M 127.582031 97.464844 C 118.773438 104.175781 107.789062 108.164062 95.890625 108.164062 L 91.109375 108.164062 C 79.210938 108.164062 68.222656 104.171875 59.417969 97.464844 C 30.667969 102.113281 8.710938 127.035156 8.710938 157.09375 C 8.710938 173.609375 46.671875 187 93.5 187 C 140.328125 187 178.292969 173.609375 178.292969 157.09375 C 178.292969 127.035156 156.332031 102.113281 127.582031 97.464844 Z M 127.582031 97.464844 " fill-opacity="1" fill-rule="nonzero"/></g></svg>