<svg xmlns="http://www.w3.org/2000/svg" xmlns:xlink="http://www.w3.org/1999/xlink" width="250" zoomAndPan="magnify" viewBox="0 0 187.5 187.499992" height="250" preserveAspectRatio="xMidYMid meet" version="1.0"><defs><clipPath id="ac657a35ce"><path d="M 0.0078125 13.792969 L 187 13.792969 L 187 44.824219 L 0.0078125 44.824219 Z M 0.0078125 13.792969 " clip-rule="nonzero"/></clipPath><clipPath id="4a0e6d4cf4"><path d="M 0.0078125 75.132812 L 187 75.132812 L 187 106.886719 L 0.0078125 106.886719 Z M 0.0078125 75.132812 " clip-rule="nonzero"/></clipPath><clipPath id="2b06077647"><path d="M 0.0078125 137.195312 L 187 137.195312 L 187 168.332031 L 0.0078125 168.332031 Z M 0.0078125 137.195312 " clip-rule="nonzero"/></clipPath></defs><g clip-path="url(#ac657a35ce)"><path fill="#a6a6a6" d="M 171.542969 44.699219 L 15.460938 44.699219 C 6.925781 44.699219 0.0078125 37.78125 0.0078125 29.246094 C 0.0078125 20.710938 6.925781 13.792969 15.460938 13.792969 L 171.542969 13.792969 C 180.078125 13.792969 186.996094 20.710938 186.996094 29.246094 C 186.996094 37.78125 180.078125 44.699219 171.542969 44.699219 " fill-opacity="1" fill-rule="nonzero"/></g><g clip-path="url(#4a0e6d4cf4)"><path fill="#a6a6a6" d="M 171.542969 106.515625 L 15.460938 106.515625 C 6.925781 106.515625 0.0078125 99.597656 0.0078125 91.0625 C 0.0078125 82.523438 6.925781 75.605469 15.460938 75.605469 L 171.542969 75.605469 C 180.078125 75.605469 186.996094 82.523438 186.996094 91.0625 C 186.996094 99.597656 180.078125 106.515625 171.542969 106.515625 " fill-opacity="1" fill-rule="nonzero"/></g><g clip-path="url(#2b06077647)"><path fill="#a6a6a6" d="M 171.542969 168.332031 L 15.460938 168.332031 C 6.925781 168.332031 0.0078125 161.414062 0.0078125 152.875 C 0.0078125 144.339844 6.925781 137.421875 15.460938 137.421875 L 171.542969 137.421875 C 180.078125 137.421875 186.996094 144.339844 186.996094 152.875 C 186.996094 161.414062 180.078125 168.332031 171.542969 168.332031 " fill-opacity="1" fill-rule="nonzero"/></g></svg>