<svg xmlns="http://www.w3.org/2000/svg" xmlns:xlink="http://www.w3.org/1999/xlink" width="250" zoomAndPan="magnify" viewBox="0 0 187.5 187.499992" height="250" preserveAspectRatio="xMidYMid meet" version="1.0"><defs><clipPath id="68cafaa0b0"><path d="M 0 27.804688 L 187 27.804688 L 187 159.453125 L 0 159.453125 Z M 0 27.804688 " clip-rule="nonzero"/></clipPath></defs><g clip-path="url(#68cafaa0b0)"><path fill="#a6a6a6" d="M 6.589844 115.359375 L 6.589844 35.820312 C 6.589844 31.402344 10.171875 27.816406 14.589844 27.816406 L 94.089844 27.816406 C 98.507812 27.816406 102.089844 31.402344 102.089844 35.820312 L 102.089844 115.359375 C 102.089844 116.832031 100.898438 118.027344 99.421875 118.027344 L 9.257812 118.027344 C 7.78125 118.027344 6.589844 116.832031 6.589844 115.359375 Z M 70.785156 142.605469 C 70.785156 151.773438 63.351562 159.203125 54.1875 159.203125 C 45.019531 159.203125 37.589844 151.773438 37.589844 142.605469 C 37.589844 133.4375 45.019531 126.007812 54.1875 126.007812 C 63.351562 126.007812 70.785156 133.4375 70.785156 142.605469 Z M 62.484375 142.605469 C 62.484375 138.023438 58.769531 134.308594 54.1875 134.308594 C 49.601562 134.308594 45.886719 138.023438 45.886719 142.605469 C 45.886719 147.1875 49.601562 150.90625 54.1875 150.90625 C 58.769531 150.90625 62.484375 147.1875 62.484375 142.605469 Z M 39.890625 126.007812 L 2.695312 126.007812 C 1.222656 126.007812 0.0273438 127.203125 0.0273438 128.675781 L 0.0273438 136.769531 C 0.0273438 138.242188 1.222656 139.4375 2.695312 139.4375 L 32.507812 139.4375 C 33.289062 134.09375 35.984375 129.378906 39.890625 126.007812 Z M 157.628906 142.605469 C 157.628906 151.773438 150.195312 159.203125 141.03125 159.203125 C 131.863281 159.203125 124.429688 151.773438 124.429688 142.605469 C 124.429688 133.4375 131.863281 126.007812 141.03125 126.007812 C 150.195312 126.007812 157.628906 133.4375 157.628906 142.605469 Z M 149.328125 142.605469 C 149.328125 138.023438 145.613281 134.308594 141.03125 134.308594 C 136.445312 134.308594 132.730469 138.023438 132.730469 142.605469 C 132.730469 147.1875 136.445312 150.90625 141.03125 150.90625 C 145.613281 150.90625 149.328125 147.1875 149.328125 142.605469 Z M 186.972656 128.675781 L 186.972656 136.769531 C 186.972656 138.242188 185.777344 139.4375 184.304688 139.4375 L 162.707031 139.4375 C 161.160156 128.839844 152.042969 120.671875 141.03125 120.671875 C 130.015625 120.671875 120.898438 128.839844 119.351562 139.4375 L 75.863281 139.4375 C 75.085938 134.09375 72.390625 129.378906 68.480469 126.007812 L 109.714844 126.007812 L 109.714844 49.707031 C 109.714844 46.757812 112.105469 44.371094 115.050781 44.371094 L 140.234375 44.371094 C 147.328125 44.371094 153.953125 47.890625 157.921875 53.769531 L 174.15625 77.816406 C 176.539062 81.34375 177.8125 85.5 177.8125 89.757812 L 177.8125 126.007812 L 184.304688 126.007812 C 185.777344 126.007812 186.972656 127.203125 186.972656 128.675781 Z M 159.910156 78.433594 L 146.925781 59.984375 C 146.429688 59.273438 145.613281 58.851562 144.746094 58.851562 L 124.496094 58.851562 C 123.023438 58.851562 121.828125 60.046875 121.828125 61.519531 L 121.828125 79.96875 C 121.828125 81.441406 123.023438 82.636719 124.496094 82.636719 L 157.730469 82.636719 C 159.890625 82.636719 161.15625 80.199219 159.910156 78.433594 Z M 159.910156 78.433594 " fill-opacity="1" fill-rule="nonzero"/></g></svg>