<svg xmlns="http://www.w3.org/2000/svg" xmlns:xlink="http://www.w3.org/1999/xlink" width="250" zoomAndPan="magnify" viewBox="0 0 187.5 187.499992" height="250" preserveAspectRatio="xMidYMid meet" version="1.0"><defs><clipPath id="6683f066f1"><path d="M 9.351562 9.351562 L 177.652344 9.351562 L 177.652344 177.652344 L 9.351562 177.652344 Z M 9.351562 9.351562 " clip-rule="nonzero"/></clipPath></defs><g clip-path="url(#6683f066f1)"><path fill="#a6a6a6" d="M 93.5 9.351562 C 92.125 9.351562 90.746094 9.382812 89.371094 9.453125 C 87.996094 9.519531 86.621094 9.621094 85.253906 9.753906 C 83.882812 9.890625 82.515625 10.058594 81.152344 10.261719 C 79.789062 10.464844 78.433594 10.699219 77.082031 10.96875 C 75.734375 11.234375 74.390625 11.539062 73.054688 11.871094 C 71.71875 12.207031 70.390625 12.574219 69.074219 12.972656 C 67.753906 13.375 66.449219 13.804688 65.152344 14.269531 C 63.855469 14.734375 62.570312 15.230469 61.296875 15.753906 C 60.023438 16.28125 58.765625 16.839844 57.523438 17.429688 C 56.277344 18.019531 55.046875 18.636719 53.832031 19.285156 C 52.617188 19.9375 51.417969 20.613281 50.238281 21.324219 C 49.058594 22.03125 47.894531 22.765625 46.75 23.53125 C 45.605469 24.296875 44.476562 25.089844 43.371094 25.910156 C 42.265625 26.730469 41.179688 27.578125 40.117188 28.453125 C 39.050781 29.324219 38.007812 30.222656 36.988281 31.148438 C 35.96875 32.074219 34.972656 33.023438 33.996094 33.996094 C 33.023438 34.972656 32.074219 35.96875 31.148438 36.988281 C 30.222656 38.007812 29.324219 39.050781 28.453125 40.117188 C 27.578125 41.179688 26.730469 42.265625 25.910156 43.371094 C 25.089844 44.476562 24.296875 45.605469 23.53125 46.75 C 22.765625 47.894531 22.03125 49.058594 21.324219 50.238281 C 20.613281 51.417969 19.9375 52.617188 19.285156 53.832031 C 18.636719 55.046875 18.019531 56.277344 17.429688 57.523438 C 16.839844 58.765625 16.28125 60.023438 15.753906 61.296875 C 15.230469 62.570312 14.734375 63.855469 14.269531 65.152344 C 13.804688 66.449219 13.375 67.753906 12.972656 69.074219 C 12.574219 70.390625 12.207031 71.71875 11.871094 73.054688 C 11.539062 74.390625 11.234375 75.734375 10.96875 77.082031 C 10.699219 78.433594 10.464844 79.789062 10.261719 81.152344 C 10.058594 82.515625 9.890625 83.882812 9.753906 85.253906 C 9.621094 86.621094 9.519531 87.996094 9.453125 89.371094 C 9.382812 90.746094 9.351562 92.125 9.351562 93.5 C 9.351562 94.878906 9.382812 96.253906 9.453125 97.628906 C 9.519531 99.003906 9.621094 100.378906 9.753906 101.75 C 9.890625 103.121094 10.058594 104.484375 10.261719 105.847656 C 10.464844 107.210938 10.699219 108.566406 10.96875 109.917969 C 11.234375 111.269531 11.539062 112.613281 11.871094 113.949219 C 12.207031 115.285156 12.574219 116.609375 12.972656 117.929688 C 13.375 119.246094 13.804688 120.554688 14.269531 121.851562 C 14.734375 123.148438 15.230469 124.429688 15.753906 125.703125 C 16.28125 126.976562 16.839844 128.234375 17.429688 129.480469 C 18.019531 130.726562 18.636719 131.953125 19.285156 133.167969 C 19.9375 134.382812 20.613281 135.582031 21.324219 136.761719 C 22.03125 137.945312 22.765625 139.105469 23.53125 140.253906 C 24.296875 141.398438 25.089844 142.523438 25.910156 143.628906 C 26.730469 144.734375 27.578125 145.820312 28.453125 146.886719 C 29.324219 147.949219 30.222656 148.992188 31.148438 150.011719 C 32.074219 151.03125 33.023438 152.03125 33.996094 153.003906 C 34.972656 153.976562 35.96875 154.925781 36.988281 155.851562 C 38.007812 156.777344 39.050781 157.675781 40.117188 158.550781 C 41.179688 159.421875 42.265625 160.269531 43.371094 161.089844 C 44.476562 161.910156 45.605469 162.703125 46.75 163.46875 C 47.894531 164.234375 49.058594 164.972656 50.238281 165.679688 C 51.417969 166.386719 52.617188 167.066406 53.832031 167.714844 C 55.046875 168.363281 56.277344 168.984375 57.523438 169.570312 C 58.765625 170.160156 60.023438 170.71875 61.296875 171.246094 C 62.570312 171.773438 63.855469 172.269531 65.152344 172.730469 C 66.449219 173.195312 67.753906 173.628906 69.074219 174.027344 C 70.390625 174.425781 71.71875 174.792969 73.054688 175.128906 C 74.390625 175.464844 75.734375 175.765625 77.082031 176.035156 C 78.433594 176.304688 79.789062 176.539062 81.152344 176.742188 C 82.515625 176.941406 83.882812 177.109375 85.253906 177.246094 C 86.621094 177.382812 87.996094 177.480469 89.371094 177.550781 C 90.746094 177.617188 92.125 177.652344 93.5 177.652344 C 94.878906 177.652344 96.253906 177.617188 97.628906 177.550781 C 99.003906 177.480469 100.378906 177.382812 101.75 177.246094 C 103.121094 177.109375 104.484375 176.941406 105.847656 176.742188 C 107.210938 176.539062 108.566406 176.304688 109.917969 176.035156 C 111.269531 175.765625 112.613281 175.464844 113.949219 175.128906 C 115.285156 174.792969 116.609375 174.425781 117.929688 174.027344 C 119.246094 173.628906 120.554688 173.195312 121.851562 172.730469 C 123.148438 172.269531 124.429688 171.773438 125.703125 171.246094 C 126.976562 170.71875 128.234375 170.160156 129.480469 169.570312 C 130.726562 168.984375 131.953125 168.363281 133.167969 167.714844 C 134.382812 167.066406 135.582031 166.386719 136.761719 165.679688 C 137.945312 164.972656 139.105469 164.234375 140.253906 163.46875 C 141.398438 162.703125 142.523438 161.910156 143.628906 161.089844 C 144.734375 160.269531 145.820312 159.421875 146.886719 158.550781 C 147.949219 157.675781 148.992188 156.777344 150.011719 155.851562 C 151.03125 154.925781 152.03125 153.976562 153.003906 153.003906 C 153.976562 152.03125 154.925781 151.03125 155.851562 150.011719 C 156.777344 148.992188 157.675781 147.949219 158.550781 146.886719 C 159.421875 145.820312 160.269531 144.734375 161.089844 143.628906 C 161.910156 142.523438 162.703125 141.398438 163.46875 140.253906 C 164.234375 139.105469 164.972656 137.945312 165.679688 136.761719 C 166.386719 135.582031 167.066406 134.382812 167.714844 133.167969 C 168.363281 131.953125 168.984375 130.726562 169.570312 129.480469 C 170.160156 128.234375 170.71875 126.976562 171.246094 125.703125 C 171.773438 124.429688 172.269531 123.148438 172.730469 121.851562 C 173.195312 120.554688 173.628906 119.246094 174.027344 117.929688 C 174.425781 116.609375 174.792969 115.285156 175.128906 113.949219 C 175.464844 112.613281 175.765625 111.269531 176.035156 109.917969 C 176.304688 108.566406 176.539062 107.210938 176.742188 105.847656 C 176.941406 104.484375 177.109375 103.121094 177.246094 101.75 C 177.382812 100.378906 177.480469 99.003906 177.550781 97.628906 C 177.617188 96.253906 177.652344 94.878906 177.652344 93.5 C 177.648438 92.125 177.613281 90.746094 177.546875 89.371094 C 177.476562 87.996094 177.375 86.625 177.238281 85.253906 C 177.101562 83.886719 176.929688 82.519531 176.726562 81.15625 C 176.523438 79.796875 176.289062 78.441406 176.019531 77.089844 C 175.75 75.742188 175.445312 74.398438 175.109375 73.0625 C 174.773438 71.726562 174.40625 70.402344 174.003906 69.085938 C 173.605469 67.765625 173.171875 66.460938 172.707031 65.164062 C 172.242188 63.867188 171.746094 62.585938 171.21875 61.3125 C 170.691406 60.042969 170.132812 58.785156 169.542969 57.539062 C 168.953125 56.296875 168.335938 55.066406 167.6875 53.851562 C 167.035156 52.636719 166.355469 51.441406 165.648438 50.261719 C 164.941406 49.078125 164.203125 47.917969 163.4375 46.773438 C 162.671875 45.628906 161.878906 44.503906 161.058594 43.398438 C 160.238281 42.292969 159.394531 41.207031 158.519531 40.144531 C 157.644531 39.078125 156.746094 38.035156 155.820312 37.015625 C 154.898438 35.996094 153.949219 35 152.976562 34.027344 C 152 33.054688 151.003906 32.105469 149.984375 31.179688 C 148.964844 30.253906 147.921875 29.355469 146.859375 28.480469 C 145.792969 27.609375 144.710938 26.761719 143.605469 25.941406 C 142.5 25.121094 141.375 24.328125 140.230469 23.5625 C 139.085938 22.796875 137.921875 22.0625 136.742188 21.351562 C 135.558594 20.644531 134.363281 19.964844 133.148438 19.316406 C 131.933594 18.667969 130.707031 18.046875 129.460938 17.457031 C 128.21875 16.867188 126.960938 16.308594 125.6875 15.78125 C 124.417969 15.253906 123.132812 14.757812 121.835938 14.292969 C 120.539062 13.828125 119.234375 13.394531 117.917969 12.996094 C 116.601562 12.59375 115.273438 12.226562 113.9375 11.890625 C 112.601562 11.554688 111.261719 11.253906 109.910156 10.984375 C 108.5625 10.714844 107.203125 10.476562 105.84375 10.273438 C 104.480469 10.070312 103.117188 9.902344 101.746094 9.765625 C 100.375 9.628906 99.003906 9.523438 97.628906 9.457031 C 96.253906 9.386719 94.878906 9.351562 93.5 9.351562 Z M 121.859375 121.859375 C 121.503906 122.214844 121.117188 122.53125 120.699219 122.808594 C 120.28125 123.089844 119.84375 123.324219 119.378906 123.515625 C 118.914062 123.710938 118.4375 123.855469 117.941406 123.953125 C 117.449219 124.050781 116.953125 124.097656 116.449219 124.097656 C 115.949219 124.097656 115.453125 124.050781 114.957031 123.953125 C 114.464844 123.855469 113.988281 123.710938 113.523438 123.515625 C 113.058594 123.324219 112.617188 123.089844 112.203125 122.808594 C 111.785156 122.53125 111.398438 122.214844 111.042969 121.859375 L 88.09375 98.910156 C 87.375 98.191406 86.820312 97.363281 86.433594 96.429688 C 86.046875 95.492188 85.851562 94.515625 85.851562 93.5 L 85.851562 47.601562 C 85.851562 47.097656 85.898438 46.601562 85.996094 46.109375 C 86.09375 45.613281 86.242188 45.136719 86.433594 44.671875 C 86.625 44.207031 86.859375 43.769531 87.140625 43.351562 C 87.417969 42.933594 87.734375 42.546875 88.089844 42.191406 C 88.445312 41.835938 88.832031 41.519531 89.25 41.238281 C 89.667969 40.960938 90.109375 40.726562 90.574219 40.53125 C 91.039062 40.339844 91.515625 40.195312 92.007812 40.097656 C 92.5 40 93 39.949219 93.5 39.949219 C 94.003906 39.949219 94.5 40 94.992188 40.097656 C 95.484375 40.195312 95.964844 40.339844 96.429688 40.53125 C 96.890625 40.726562 97.332031 40.960938 97.75 41.238281 C 98.167969 41.519531 98.554688 41.835938 98.910156 42.191406 C 99.265625 42.546875 99.582031 42.933594 99.863281 43.351562 C 100.140625 43.769531 100.375 44.207031 100.570312 44.671875 C 100.761719 45.136719 100.90625 45.613281 101.003906 46.109375 C 101.101562 46.601562 101.152344 47.097656 101.152344 47.601562 L 101.152344 90.332031 L 121.859375 111.042969 C 122.214844 111.398438 122.53125 111.785156 122.808594 112.203125 C 123.089844 112.617188 123.324219 113.058594 123.515625 113.523438 C 123.710938 113.988281 123.855469 114.464844 123.953125 114.957031 C 124.050781 115.453125 124.097656 115.949219 124.097656 116.449219 C 124.097656 116.953125 124.050781 117.449219 123.953125 117.941406 C 123.855469 118.433594 123.710938 118.914062 123.515625 119.378906 C 123.324219 119.84375 123.089844 120.28125 122.808594 120.699219 C 122.53125 121.117188 122.214844 121.503906 121.859375 121.859375 Z M 121.859375 121.859375 " fill-opacity="1" fill-rule="nonzero"/></g></svg>