<svg xmlns="http://www.w3.org/2000/svg" xmlns:xlink="http://www.w3.org/1999/xlink" width="250" zoomAndPan="magnify" viewBox="0 0 187.5 187.499992" height="250" preserveAspectRatio="xMidYMid meet" version="1.0"><defs><clipPath id="0bff44d27a"><path d="M 3.761719 3.761719 L 183.28125 3.761719 L 183.28125 183.28125 L 3.761719 183.28125 Z M 3.761719 3.761719 " clip-rule="nonzero"/></clipPath></defs><g clip-path="url(#0bff44d27a)"><path fill="#a6a6a6" d="M 162.527344 45.179688 C 162.527344 45.179688 42.699219 45.179688 22.039062 45.179688 C 15.980469 45.179688 10.59375 43.964844 10.59375 38.277344 L 162.527344 31.371094 L 162.527344 17.566406 C 162.527344 6.136719 153.25 3.761719 141.820312 3.761719 L 17.710938 24.46875 C 6.652344 26.925781 3.761719 31.613281 3.761719 38.277344 L 3.761719 162.527344 C 3.761719 173.957031 13.039062 183.234375 24.46875 183.234375 L 162.527344 183.234375 C 173.957031 183.234375 183.234375 173.957031 183.234375 162.527344 L 183.234375 65.886719 C 183.234375 54.457031 173.957031 45.179688 162.527344 45.179688 Z M 155.625 128.011719 C 148.003906 128.011719 141.820312 121.828125 141.820312 114.207031 C 141.820312 106.585938 148.003906 100.402344 155.625 100.402344 C 163.246094 100.402344 169.429688 106.585938 169.429688 114.207031 C 169.429688 121.828125 163.246094 128.011719 155.625 128.011719 Z M 155.625 128.011719 " fill-opacity="1" fill-rule="nonzero"/></g></svg>